<svg viewBox="0 0 129 128" fill="none" xmlns="http://www.w3.org/2000/svg">
  <path d="M15 42.5L42.5 13.5H85L115.5 42.5V86.5L87.5 114.5H42.5L13.5 86.5L15 42.5Z" fill="#F7EEF6" />
  <path
    d="M86.8932 117.104H42.1052L11.27 86.2686V41.4805L42.1052 10.6454H86.8932L117.728 41.4805V86.2686L86.8932 117.104ZM44.3099 111.781H84.6885L112.405 84.0639V43.6852L84.6885 15.9683H44.3099L16.5929 43.6852V84.0639L44.3099 111.781ZM69.2307 85.7576C69.2307 88.3455 67.0866 90.4891 64.4992 90.4891C61.8375 90.4891 59.7677 88.4194 59.7677 85.7576C59.7677 83.0963 61.8375 81.0261 64.4992 81.0261C67.0866 81.0261 69.2307 83.1702 69.2307 85.7576ZM61.0981 53.8202V37.26H67.8998V53.8202L66.1256 74.2249H62.8728L61.0981 53.8202Z"
    fill="#551151" />
</svg>