<svg viewBox="0 0 36 36" fill="none" xmlns="http://www.w3.org/2000/svg">
  <path
    d="M28 14C29.1046 14 30 14.8954 30 16V31C30 32.1046 29.1046 33 28 33H8C6.89543 33 6 32.1046 6 31V16C6 14.8954 6.89543 14 8 14H28ZM18.0713 20.0137C16.9929 20.1324 16.1277 21.0032 16.0137 22.083C15.9441 22.7458 16.1505 23.3852 16.584 23.874V27H20.084V23.873C20.4568 23.4493 20.6668 22.9007 20.667 22.333C20.6668 21.671 20.3829 21.0368 19.8896 20.5947C19.3967 20.1531 18.7337 19.9408 18.0713 20.0137Z"
    fill="#003253" />
  <rect x="11" y="4" width="14" height="27" rx="7" stroke="#003253" stroke-width="2" />
</svg>