<svg viewBox="0 0 48 48" fill="none" xmlns="http://www.w3.org/2000/svg">
<path d="M32.1617 39.8578C30.5388 39.8578 23.1835 39.4247 15.8077 32.0491C7.78723 24.0286 7.97644 16.0317 8.00464 15.4045C8.01172 14.747 8.271 14.13 8.73658 13.6643L11.9188 10.4822C12.3909 10.01 13.0187 9.75 13.6865 9.75C14.3543 9.75 14.9821 10.01 15.4543 10.4822L19.6969 14.7249C20.1691 15.1971 20.4291 15.825 20.4291 16.4927C20.4291 17.1604 20.1691 17.7882 19.6969 18.2605L17.2221 20.7353C17.1674 20.79 17.0756 20.9087 17.0756 21.0889L17.0724 21.1862C17.0761 21.4148 17.2105 23.5521 20.7576 27.0992C24.3304 30.6721 26.473 30.7826 26.6754 30.7844L26.7441 30.7727L26.7679 30.7812C26.9481 30.7812 27.0668 30.6896 27.1213 30.6349L29.5963 28.1599C30.0686 27.6877 30.6964 27.4277 31.3641 27.4277C32.0319 27.4277 32.6597 27.6877 33.132 28.1599L37.3746 32.4025C38.3491 33.3773 38.3491 34.9632 37.3746 35.938L34.1925 39.1202C33.7266 39.5858 33.1096 39.8451 32.4523 39.8522C32.4019 39.8544 32.3036 39.8578 32.1617 39.8578ZM13.6865 11.75C13.6091 11.75 13.4603 11.769 13.333 11.8964L10.1509 15.0785C10.0962 15.1332 10.0045 15.2518 10.0045 15.432L10.0029 15.4878C9.99939 15.5604 9.71278 23.1256 17.2221 30.6348C24.7733 38.1862 32.294 37.8571 32.369 37.8539L32.4248 37.8523C32.605 37.8523 32.7236 37.7605 32.7784 37.7058L35.9603 34.5238C36.1553 34.329 36.1553 34.0116 35.9603 33.8166L31.7177 29.5742C31.5228 29.3791 31.2054 29.3791 31.0106 29.5742L28.5358 32.0491C28.0729 32.5118 27.4606 32.7709 26.8076 32.7809C26.2786 32.8135 23.5627 32.7327 19.3433 28.5135C15.1243 24.2946 15.0448 21.5795 15.0759 21.0492C15.0859 20.3962 15.345 19.7839 15.8076 19.3212L18.2826 16.8462C18.4775 16.6512 18.4775 16.3341 18.2826 16.1392L14.04 11.8965C13.9126 11.769 13.7638 11.75 13.6865 11.75Z" fill="#003253"/>
</svg>
