<svg viewBox="0 0 32 32" fill="none" xmlns="http://www.w3.org/2000/svg">
  <path
    d="M25.1663 19.3334C25.1663 17.09 24.3093 15.043 22.9058 13.5024L23.8482 12.56C25.4927 14.3429 26.4997 16.7224 26.4997 19.3334C26.4997 22.12 25.3528 24.643 23.5077 26.4582L22.5652 25.5157C24.169 23.942 25.1663 21.7524 25.1663 19.3334ZM14.6663 9.55871V24.6667C14.6663 25.4707 14.1337 26.6667 12.6663 26.6667H5.33301V5.33337H10.2013L13.6273 7.61721C13.9472 7.83 14.2095 8.11864 14.3908 8.4574C14.5721 8.79615 14.6668 9.1745 14.6663 9.55871ZM13.333 16.6667V9.55871C13.3332 9.39403 13.2926 9.23187 13.2149 9.08667C13.1372 8.94148 13.0248 8.81776 12.8877 8.72654L9.79801 6.66671H6.66634V25.3334H12.6663C13.2033 25.3334 13.3253 24.9667 13.333 24.6589V22.6667H9.33301V16.6667H13.333ZM10.6663 18V21.3334H13.333V18H10.6663ZM20.7618 23.7124L21.7042 24.6547C23.1163 23.3174 23.9997 21.4272 23.9997 19.3334C23.9997 17.4152 23.2585 15.6675 22.0487 14.3594L21.1063 15.3019C22.0752 16.3679 22.6663 17.7829 22.6663 19.3334C22.6663 21.0595 21.9327 22.6167 20.7618 23.7124ZM18.8737 21.8242L19.8195 22.77C20.7492 21.9164 21.333 20.692 21.333 19.3334C21.333 18.1505 20.8897 17.0697 20.1618 16.2464L19.2168 17.1914C19.7228 17.7904 20.0001 18.5493 19.9997 19.3334C19.9997 20.3244 19.5625 21.2132 18.8737 21.8242Z"
    fill="currentColor" />
</svg>