<svg viewBox="0 0 32 32" fill="none" xmlns="http://www.w3.org/2000/svg">
  <path fill-rule="evenodd" clip-rule="evenodd"
    d="M20.4051 5.89658C20.7936 6.15094 21.1121 6.49594 21.3322 6.90085C21.5523 7.30574 21.6673 7.75795 21.6668 8.21717V26.276C21.6668 27.2371 21.02 28.6667 19.2383 28.6667H10.3335V3.16666H16.245L20.4051 5.89658ZM11.9525 27.0729H19.2383C19.8903 27.0729 20.0385 26.6347 20.0478 26.2667V23.8854H15.1906V16.7135H20.0478V8.21717C20.048 8.02036 19.9986 7.8265 19.9043 7.65298C19.81 7.47947 19.6735 7.33165 19.507 7.22263L15.7553 4.76041H11.9525V27.0729ZM16.8097 22.2917H20.0478V18.3073H16.8097V22.2917Z"
    fill="var(--icon-stroke)" />
  <rect x="16" y="17" width="5" height="6" fill="var(--icon-fill)" />
</svg>