<svg viewBox="0 0 32 32" fill="none" xmlns="http://www.w3.org/2000/svg">
  <path
    d="M11.3332 7.70117L2.6665 9.277V27.723L11.3332 29.2988V28H17.3332V9.33334H11.3332V7.70117ZM9.99984 27.7012L3.99984 26.6103V10.3897L9.99984 9.29884V27.7012ZM15.9998 10.6667V26.6667H11.3332V10.6667H15.9998ZM7.33317 18.6667C7.33317 18.4899 7.40341 18.3203 7.52843 18.1953C7.65346 18.0702 7.82303 18 7.99984 18C8.17665 18 8.34622 18.0702 8.47124 18.1953C8.59627 18.3203 8.6665 18.4899 8.6665 18.6667C8.6665 18.8435 8.59627 19.0131 8.47124 19.1381C8.34622 19.2631 8.17665 19.3333 7.99984 19.3333C7.82303 19.3333 7.65346 19.2631 7.52843 19.1381C7.40341 19.0131 7.33317 18.8435 7.33317 18.6667ZM28.0032 6.66667V6.19051C28.0032 4.24751 26.2087 2.66667 24.0032 2.66667C21.7977 2.66667 20.0032 4.24751 20.0032 6.19051V6.66667H18.6665V16H29.3365V6.66667H28.0032ZM21.3365 6.19051C21.3365 4.98267 22.5327 4.00001 24.0032 4.00001C25.4737 4.00001 26.6698 4.98267 26.6698 6.19051V6.66667H21.3365V6.19051ZM28.0032 14.6667H19.9998V8H28.0032V14.6667ZM22.6698 10.6667C22.6698 10.313 22.8103 9.97391 23.0604 9.72386C23.3104 9.47381 23.6495 9.33334 24.0032 9.33334C24.3568 9.33334 24.6959 9.47381 24.946 9.72386C25.196 9.97391 25.3365 10.313 25.3365 10.6667C25.3365 10.9006 25.2748 11.1303 25.1578 11.3328C25.0408 11.5353 24.8725 11.7034 24.6698 11.8202V13.3333H23.3365V11.8202C23.1339 11.7034 22.9656 11.5353 22.8485 11.3328C22.7315 11.1303 22.6699 10.9006 22.6698 10.6667Z"
    fill="currentColor" />
</svg>