<svg viewBox="0 0 32 32" fill="none" xmlns="http://www.w3.org/2000/svg">
  <path
    d="M17.9998 16C17.9998 17.1045 17.1043 18 15.9998 18C14.8953 18 13.9998 17.1045 13.9998 16C13.9998 14.8955 14.8953 14 15.9998 14C17.1043 14 17.9998 14.8955 17.9998 16ZM20.7138 11.286L19.7712 12.2287C20.7785 13.236 21.3332 14.5753 21.3332 16C21.3332 17.4245 20.7785 18.7638 19.7712 19.7712L20.7138 20.714C21.9732 19.4548 22.6665 17.7807 22.6665 16C22.6665 14.2193 21.9732 12.545 20.7138 11.286ZM11.2858 11.286C10.0267 12.545 9.33317 14.219 9.33317 16C9.33317 17.7808 10.0265 19.455 11.2858 20.7142L12.2287 19.771C11.2213 18.7638 10.6665 17.4247 10.6665 16C10.6665 14.5753 11.2213 13.236 12.2287 12.2288L11.2858 11.2858V11.286ZM25.4737 6.61784L24.5265 7.55617C26.7662 9.81784 27.9998 12.8167 27.9998 16C27.9998 19.2055 26.7515 22.2188 24.4852 24.4853L25.4278 25.4282C27.9462 22.9098 29.3332 19.5615 29.3332 16C29.3332 12.4628 27.9625 9.13084 25.4737 6.61784ZM7.5145 7.515L6.5715 6.57167C4.05334 9.09017 2.6665 12.4385 2.6665 16.0002C2.6665 19.5613 4.05334 22.9097 6.57167 25.4282L7.5145 24.4853C5.24784 22.2187 3.99984 19.2053 3.99984 16C3.99984 12.7947 5.248 9.7815 7.5145 7.515ZM9.8715 9.87167L8.92884 8.92917C7.03984 10.818 5.99984 13.329 5.99984 16C5.99984 18.6712 7.03984 21.1823 8.92884 23.071L9.8715 22.1283C8.23484 20.4913 7.33317 18.315 7.33317 16C7.33317 13.6853 8.23467 11.5088 9.8715 9.87167ZM23.0708 8.92917L22.1282 9.87184C23.7648 11.5087 24.6665 13.685 24.6665 16C24.6665 18.315 23.7648 20.4915 22.1282 22.1283L23.0708 23.071C24.9595 21.1823 25.9998 18.671 25.9998 16C25.9998 13.329 24.9595 10.818 23.0708 8.92917Z"
    fill="currentColor" />
</svg>