<svg viewBox="0 0 32 32" fill="none" xmlns="http://www.w3.org/2000/svg">
  <path
    d="M28.9153 27.7L29.3317 28.9668C28.5912 29.2091 27.8171 29.3324 27.038 29.3322C26.1887 29.3325 25.3457 29.1859 24.5463 28.899L16.3117 25.714L16.1952 25.494C16.142 25.3933 15.6852 24.484 16.0442 23.5408C16.398 22.611 17.3582 22.0687 18.488 22.1607C18.8597 22.1908 19.9322 22.3413 20.924 22.4865L15.2523 16.8148C14.4725 16.0348 14.4725 14.7662 15.2523 13.9863C16.0322 13.2065 17.3008 13.2068 18.0808 13.9863L21.1608 17.0665C21.2817 16.6143 21.5202 16.2021 21.852 15.872C22.0506 15.6731 22.2794 15.5069 22.5298 15.3795L26.3463 13.4713C27.2538 13.0365 28.3063 13.1387 29.103 13.7342L28.3048 14.8022C28.1102 14.6565 27.8793 14.567 27.6373 14.5435C27.3953 14.52 27.1515 14.5633 26.9325 14.6688L23.13 16.5702C23.0062 16.6337 22.8931 16.7162 22.7948 16.8147C22.5428 17.0667 22.4042 17.4015 22.4042 17.7577C22.4042 18.1138 22.5428 18.4487 22.7947 18.7003L21.852 19.6432L17.138 14.9292C17.0129 14.8043 16.8433 14.7342 16.6665 14.7342C16.4897 14.7342 16.3201 14.8043 16.195 14.9292C16.0701 15.0543 16 15.2238 16 15.4006C16 15.5773 16.0701 15.7469 16.195 15.872L23.7375 23.4143L23.0048 24.1468L22.6712 24.0958C21.4288 23.9057 18.9328 23.5343 18.3802 23.4895C17.9628 23.4555 17.457 23.576 17.29 24.0148C17.2082 24.23 17.2443 24.4825 17.297 24.6655L25.0128 27.65C26.2543 28.0972 27.6457 28.1172 28.9152 27.6998L28.9153 27.7ZM26.591 5.33334H5.40867C3.89667 5.33334 2.6665 6.5635 2.6665 8.0755V21.2578C2.6665 22.7698 3.89667 24 5.40867 24H14.6995C14.7245 23.6939 14.7922 23.3929 14.9008 23.1057C14.9587 22.9544 15.0278 22.8076 15.1077 22.6667H5.40867C4.63184 22.6667 3.99984 22.0347 3.99984 21.2578V8.0755C3.99984 7.29867 4.63184 6.66667 5.40867 6.66667H26.591C27.3678 6.66667 27.9998 7.29867 27.9998 8.0755V12.0125C28.4664 12.0717 28.9182 12.2155 29.3332 12.4368V8.0755C29.3332 6.5635 28.103 5.33334 26.591 5.33334ZM23.9998 13.2772V8.66667H7.99984V20.6667H17.3747L16.0413 19.3333H9.33317V10H22.6665V13.9437L23.9998 13.2772ZM6.6665 11.3333H5.33317V12.6667H6.6665V11.3333ZM6.6665 14H5.33317V15.3333H6.6665V14ZM5.33317 18H6.6665V16.6667H5.33317V18Z"
    fill="currentColor" />
</svg>