<svg viewBox="0 0 36 36" fill="none" xmlns="http://www.w3.org/2000/svg">
  <rect x="-1" y="1" width="22" height="17" rx="1" transform="matrix(-1 0 0 1 28 14)" fill="#F7EEF6"
    stroke="#340731" stroke-width="2" />
  <path
    d="M18 3C13.5817 3 10 6.58172 10 11V14H12V11C12 7.68629 14.6863 5 18 5C20.2926 5 22.2848 6.28592 23.2949 8.17578L24.7002 6.62988C23.272 4.44473 20.8053 3 18 3Z"
    fill="#340731" />
  <rect width="3" height="6" rx="1.5" transform="matrix(-1 0 0 1 19 19)" fill="#551151" />
  <rect width="3" height="3" rx="1.5" transform="matrix(-1 0 0 1 19 26)" fill="#551151" />
</svg>