<svg viewBox="0 0 32 32" fill="none" xmlns="http://www.w3.org/2000/svg">
  <path d="M27 25.5H5L9 20V10L9.5 7L12.5 4.5L16 3.5H18.5L21.5 5.5L23 9V19.5L27 25.5Z" fill="var(--icon-fill)" />
  <path
    d="M28.7835 26L24.0001 19.75V10.6667C24.0001 6.25 20.4168 2.66666 16.0001 2.66666C11.5835 2.66666 8.00013 6.25 8.00013 10.6667V19.75L3.2168 26H12.0501C12.3668 27.8833 14.0168 29.3333 16.0001 29.3333C17.9835 29.3333 19.6168 27.8833 19.9501 26H28.7835ZM9.33346 20.25V10.6667C9.33346 6.98333 12.3168 4 16.0001 4C19.6835 4 22.6668 6.98333 22.6668 10.6667V20.25L25.8835 24.6667H6.1168L9.33346 20.25ZM16.0001 28C14.7668 28 13.7168 27.15 13.4168 26H18.5668C18.2835 27.15 17.2335 28 16.0001 28Z"
    fill="var(--icon-stroke)" />
</svg>