<svg viewBox="0 0 129 128" fill="none" xmlns="http://www.w3.org/2000/svg">
  <circle cx="64.336" cy="63.958" r="53.0225" fill="#EFF1F2" />
  <path
    d="M60.7323 70.621C60.7323 65.2071 62.2685 62.5734 67.7556 58.6958C71.9988 55.7695 73.3889 53.5749 73.3889 49.9901C73.3889 45.4541 70.0235 42.3813 64.9755 42.3813C59.4152 42.3813 56.0501 45.3079 54.9526 51.2338L49.3194 50.5021C50.0508 46.1857 51.2947 43.6253 54.0016 41.2109C56.8547 38.6501 60.7323 37.3333 65.1948 37.3333C73.8276 37.3333 79.6805 42.3813 79.6805 49.8437C79.6805 53.2823 78.583 56.1353 76.4613 58.4764C75.1444 59.8665 74.1205 60.6714 70.8281 62.866C66.9507 65.4265 66.0729 67.0363 66.0729 71.4255V74.5715H60.7323V70.621ZM67.975 85.9844C67.975 88.5449 65.8533 90.6666 63.2928 90.6666C60.6591 90.6666 58.6106 88.6181 58.6106 85.9844C58.6106 83.3507 60.6591 81.3022 63.2928 81.3022C65.8533 81.3022 67.975 83.424 67.975 85.9844ZM64.5 117.333C35.0918 117.333 11.1666 93.4082 11.1666 64C11.1666 34.5918 35.0918 10.6666 64.5 10.6666C93.9082 10.6666 117.833 34.5918 117.833 64C117.833 93.4082 93.9082 117.333 64.5 117.333ZM64.5 16C38.0325 16 16.5 37.5325 16.5 64C16.5 90.4674 38.0325 112 64.5 112C90.9674 112 112.5 90.4674 112.5 64C112.5 37.5325 90.9674 16 64.5 16Z"
    fill="#43464A" />
</svg>