<?xml version="1.0" encoding="UTF-8"?>
<svg xmlns="http://www.w3.org/2000/svg" version="1.1" viewBox="0 0 192 192">
  <path
    d="M88 116.741c0-16.68 2.842-22.606 20.62-36.214 12.73-9.657 16.68-16.461 16.68-28.093 0-15.583-10.755-25.679-27.216-25.679-17.339 0-28.313 9.437-32.702 28.313l-11.633-1.975c2.634-12.511 6.585-19.973 14.706-26.777 7.901-6.804 18.216-10.315 29.849-10.315 23.704 0 39.945 14.705 39.945 36.214 0 9.876-3.073 18.217-9.218 25.24-3.512 3.95-6.146 6.145-14.267 12.071-13.827 10.096-14.765 15.087-14.765 28.475v14h-12v-15.259ZM104 166c0 5.435-4.566 10-10 10s-10-4.566-10-10c0-5.652 4.348-10 10-10 5.435 0 10 4.565 10 10"
    style="fill: #000000;" />
</svg>