<svg viewBox="0 0 32 32" fill="none" xmlns="http://www.w3.org/2000/svg">
  <rect x="11" y="9" width="10" height="19" fill="var(--icon-fill)" />
  <path fill-rule="evenodd" clip-rule="evenodd"
    d="M19.2686 8C20.7746 8 22 9.19666 22 10.667V26.667C21.9998 28.1372 20.7744 29.333 19.2686 29.333H12.7314C11.2256 29.333 10.0002 28.1372 10 26.667V10.667C10 9.19666 11.2254 8 12.7314 8H19.2686ZM12.7314 9.33301C11.9608 9.33301 11.333 9.93183 11.333 10.667V26.667C11.3332 27.402 11.9609 28 12.7314 28H19.2686C20.0391 28 20.6668 27.402 20.667 26.667V10.667C20.667 9.93183 20.0392 9.33301 19.2686 9.33301H12.7314Z"
    fill="var(--icon-stroke)" />
  <path
    d="M16 5.33203C16.8901 5.33207 17.7269 5.67933 18.3564 6.30859L17.4141 7.25195C17.0363 6.87433 16.5341 6.66606 16 6.66602C15.7373 6.66532 15.4771 6.71687 15.2344 6.81738C14.9916 6.91794 14.7712 7.06565 14.5859 7.25195L13.6426 6.30859C14.2722 5.67886 15.1097 5.33203 16 5.33203Z"
    fill="var(--icon-stroke)" />
  <path
    d="M16 2.66602C17.6024 2.66606 19.1089 3.28981 20.2422 4.42285L19.2998 5.36621C18.4185 4.48458 17.2463 3.99907 16 3.99902C14.7537 3.99902 13.5819 4.48493 12.7002 5.36621L11.7568 4.42285C12.8902 3.28962 14.3972 2.66602 16 2.66602Z"
    fill="var(--icon-stroke)" />
  <path fill-rule="evenodd" clip-rule="evenodd"
    d="M16 21.333C17.4703 21.333 18.667 22.5297 18.667 24C18.667 25.4703 17.4703 26.667 16 26.667C14.5297 26.667 13.333 25.4703 13.333 24C13.333 22.5297 14.5297 21.333 16 21.333ZM16 22.667C15.2648 22.667 14.667 23.2648 14.667 24C14.667 24.7352 15.2648 25.333 16 25.333C16.7352 25.333 17.333 24.7352 17.333 24C17.333 23.2648 16.7352 22.667 16 22.667Z"
    fill="var(--icon-inside)" />
  <path d="M14 18.667V20H12.667V18.667H14Z" fill="var(--icon-inside)" />
  <path d="M16.667 18.667V20H15.333V18.667H16.667Z" fill="var(--icon-inside)" />
  <path d="M19.333 18.667V20H18V18.667H19.333Z" fill="var(--icon-inside)" />
  <path d="M14 16V17.333H12.667V16H14Z" fill="var(--icon-inside)" />
  <path d="M16.667 16V17.333H15.333V16H16.667Z" fill="var(--icon-inside)" />
  <path d="M19.333 16V17.333H18V16H19.333Z" fill="var(--icon-inside)" />
  <path d="M14 13.333V14.667H12.667V13.333H14Z" fill="var(--icon-inside)" />
  <path d="M16.667 13.333V14.667H15.333V13.333H16.667Z" fill="var(--icon-inside)" />
  <path d="M19.333 13.333V14.667H18V13.333H19.333Z" fill="var(--icon-inside)" />
  <path
    d="M18.667 10.667C18.8437 10.6671 19.0127 10.7374 19.1377 10.8623C19.2626 10.9873 19.3329 11.1563 19.333 11.333C19.333 11.5098 19.2627 11.6797 19.1377 11.8047C19.0128 11.9295 18.8436 11.9999 18.667 12C18.4902 12 18.3203 11.9297 18.1953 11.8047C18.0703 11.6797 18 11.5098 18 11.333C18.0001 11.1564 18.0705 10.9872 18.1953 10.8623C18.3203 10.7373 18.4902 10.667 18.667 10.667Z"
    fill="var(--icon-inside)" />
</svg>