<svg viewBox="0 0 32 32" fill="none" xmlns="http://www.w3.org/2000/svg">
  <path
    d="M9.33366 15.3833C7.45033 15.7 6.00033 17.35 6.00033 19.3333V22C6.00033 23.8333 4.50033 25.3333 2.66699 25.3333V26.6667C5.23366 26.6667 7.33366 24.5667 7.33366 22V19.3333C7.33366 18.1 8.18366 17.05 9.33366 16.75V20H22.667V12H9.33366V15.3833ZM10.667 13.3333H21.3337V18.6667H10.667V13.3333ZM29.3337 16C29.3337 17.65 28.817 19.1833 27.867 20.4167L26.817 19.6C27.6003 18.6 28.017 17.3667 28.017 16.0167C28.017 14.6667 27.6003 13.4333 26.817 12.4333L27.867 11.6167C28.817 12.8167 29.3337 14.35 29.3337 16ZM25.2003 13.6C25.717 14.3 26.0003 15.1333 26.0003 16C26.0003 16.8667 25.717 17.7 25.2003 18.4L24.1337 17.6C24.4837 17.1333 24.667 16.5833 24.667 16C24.667 15.4167 24.4837 14.8667 24.1337 14.4L25.2003 13.6Z"
    fill="currentColor" />
</svg>