<svg viewBox="0 0 41 40" fill="none" xmlns="http://www.w3.org/2000/svg">
  <path
    d="M20.4999 26.7707C16.7665 26.7707 13.7291 23.7333 13.7291 19.9999C13.7291 16.2665 16.7665 13.2291 20.4999 13.2291C24.2333 13.2291 27.2708 16.2665 27.2708 19.9999C27.2708 23.7333 24.2333 26.7707 20.4999 26.7707ZM20.4999 14.8957C17.6855 14.8957 15.3958 17.1855 15.3958 19.9999C15.3958 22.8143 17.6855 25.1041 20.4999 25.1041C23.3144 25.1041 25.6041 22.8143 25.6041 19.9999C25.6041 17.1855 23.3144 14.8957 20.4999 14.8957ZM20.4999 36.6666C19.6269 36.6666 18.7419 36.5964 17.8695 36.458L17.3317 36.3727L16.3647 32.6784C15.7116 32.4651 15.0739 32.2003 14.46 31.8876L11.1654 33.8153L10.7249 33.4958C9.29417 32.4577 8.04234 31.2059 7.00423 29.7751L6.68451 29.3344L8.61291 26.0411C8.29848 25.4241 8.03257 24.783 7.81864 24.1265L4.12734 23.1697L4.04179 22.6305C3.90344 21.7579 3.83325 20.8729 3.83325 19.9999C3.83325 19.1269 3.90344 18.2419 4.04179 17.3695L4.12714 16.8316L7.82119 15.8653C8.03461 15.2117 8.2996 14.5736 8.61261 13.9592L6.68451 10.6654L7.00413 10.2248C8.04224 8.79404 9.29407 7.54221 10.7248 6.50411L11.1655 6.18449L14.4591 8.11269C15.0758 7.79836 15.7168 7.53245 16.3735 7.31852L17.3304 3.62732L17.8695 3.54177C19.6143 3.26507 21.3853 3.26507 23.1305 3.54177L23.6684 3.62711L24.6354 7.32147C25.2884 7.53469 25.9261 7.79948 26.5402 8.11239L29.8345 6.18469L30.2751 6.50421C31.7057 7.54211 32.9575 8.79394 33.9958 10.2249L34.3155 10.6656L32.3871 13.9589C32.7016 14.576 32.9674 15.217 33.1813 15.8735L36.8725 16.8303L36.958 17.3695C37.0964 18.2419 37.1666 19.1269 37.1666 19.9999C37.1666 20.8729 37.0964 21.7579 36.958 22.6305L36.8727 23.1684L33.1786 24.1345C32.9652 24.7881 32.7002 25.4263 32.3872 26.0406L34.3153 29.3343L33.9957 29.775C32.9576 31.2057 31.7058 32.4576 30.275 33.4957L29.8343 33.8153L26.5409 31.8871C25.9239 32.2014 25.2829 32.4673 24.6264 32.6813L23.6698 36.3725L23.1305 36.458C22.2579 36.5964 21.3729 36.6666 20.4999 36.6666ZM18.6657 34.8871C19.888 35.037 21.1106 35.0368 22.3329 34.8873L23.2496 31.3504L23.7078 31.2195C24.5567 30.977 25.3801 30.6355 26.1552 30.2045L26.5709 29.9735L29.7278 31.8217C30.6957 31.0653 31.5653 30.1957 32.3217 29.2277L30.4736 26.0708L30.7046 25.6552C31.1341 24.8826 31.4748 24.062 31.7172 23.2162L31.848 22.7598L35.3871 21.8342C35.4621 21.2227 35.4999 20.6079 35.4999 19.9999C35.4999 19.3923 35.4621 18.778 35.3873 18.1671L31.8505 17.2504L31.7196 16.7922C31.4771 15.9433 31.1355 15.1198 30.7045 14.3444L30.4735 13.9288L32.3217 10.7721C31.5652 9.80398 30.6957 8.93453 29.7278 8.1782L26.57 10.0259L26.1544 9.79492C25.3822 9.36564 24.5622 9.02517 23.7172 8.78296L23.2608 8.65214L22.3343 5.11271C21.1119 4.96287 19.8894 4.96287 18.6671 5.11251L17.7504 8.64929L17.2922 8.78021C16.443 9.02283 15.6195 9.36442 14.8447 9.79523L14.4292 10.0264L11.2721 8.1782C10.3041 8.93453 9.43455 9.80418 8.67812 10.7721L10.5263 13.9293L10.2952 14.3449C9.86576 15.1173 9.52508 15.9378 9.28267 16.7836L9.15185 17.24L5.61273 18.1658C5.53776 18.7772 5.49992 19.3919 5.49992 19.9999C5.49992 20.6075 5.53776 21.2219 5.61253 21.8329L9.14942 22.7496L9.28034 23.2078C9.52285 24.0568 9.86444 24.8803 10.2956 25.6555L10.5267 26.0712L8.67833 29.2279C9.43476 30.1959 10.3042 31.0654 11.2723 31.8218L14.4301 29.9742L14.8455 30.2051C15.6177 30.6343 16.4377 30.9746 17.283 31.2169L17.7392 31.3478L18.6657 34.8871Z"
    fill="currentColor" />
</svg>