<svg viewBox="0 0 32 32" fill="none" xmlns="http://www.w3.org/2000/svg">
  <path
    d="M24.6823 24.6666H24.0001V16.4588C24.0001 11.7946 20.4113 7.99995 16.0001 7.99995C11.5889 7.99995 8.00011 11.7946 8.00011 16.4588V24.6666H7.31795C5.80661 24.6666 4.66678 25.7415 4.66678 27.1666V29.3333H27.3334V27.1666C27.3334 25.7415 26.1936 24.6666 24.6823 24.6666ZM9.33345 16.4588C9.33345 12.5298 12.3241 9.33328 16.0001 9.33328C19.6761 9.33328 22.6668 12.5298 22.6668 16.4588V24.6666H9.33345V16.4588ZM26.0001 28H6.00011V27.1666C6.00011 26.365 6.68328 26 7.31795 26H24.6823C25.3171 26 26.0001 26.365 26.0001 27.1666V28ZM16.6668 6.66662H15.3334V2.66662H16.6668V6.66662ZM9.97478 8.84095L7.62378 5.60495L8.70261 4.82128L11.0536 8.05728L9.97478 8.84095ZM6.91761 13.7498L3.11328 12.5138L3.52545 11.2458L7.32978 12.4818L6.91761 13.7498ZM25.0826 13.7498L24.6704 12.4818L28.4748 11.2458L28.8869 12.5138L25.0826 13.7498ZM22.0254 8.84095L20.9466 8.05728L23.2976 4.82128L24.3764 5.60495L22.0254 8.84095ZM16.0001 10.6621V11.9955C13.7919 11.9955 11.9956 13.7918 11.9956 16H10.6623C10.6623 13.0566 13.0568 10.6621 16.0001 10.6621Z"
    fill="#BE0004" />
</svg>