<svg viewBox="0 0 40 40" fill="none" xmlns="http://www.w3.org/2000/svg">
  <rect x="8.3335" y="6.66666" width="11.6667" height="26.6667" fill="var(--icon-fill)"/>
  <rect x="21.6699" y="15" width="8" height="17" fill="var(--icon-fill)" />
  <rect x="9.3335" y="7.66666" width="9.66667" height="24.6667" stroke="var(--icon-stroke)" stroke-width="2" />
  <path d="M31.6665 13.3333V33.3333H21.6665V31.3333H29.6665V15.3333H21.6665V13.3333H31.6665Z"
    fill="var(--icon-stroke)" />
  <rect x="11.6665" y="10.8333" width="1.66667" height="3.33333" fill="var(--icon-inside)" />
  <rect x="11.6665" y="15.8333" width="1.66667" height="3.33333" fill="var(--icon-inside)" />
  <rect x="23.333" y="16.6667" width="1.66667" height="3.33333" fill="var(--icon-inside)" />
  <rect x="11.6665" y="20.8333" width="1.66667" height="3.33333" fill="var(--icon-inside)" />
  <rect x="23.333" y="21.6667" width="1.66667" height="3.33333" fill="var(--icon-inside)" />
  <rect x="15" y="10.8333" width="1.66667" height="3.33333" fill="var(--icon-inside)" />

  <rect x="15" y="15.8333" width="1.66667" height="3.33333" fill="var(--icon-inside)" />
  <rect x="26.6665" y="16.6667" width="1.66667" height="3.33333" fill="var(--icon-inside)" />
  <rect x="15" y="20.8333" width="1.66667" height="3.33333" fill="var(--icon-inside)" />
  <rect x="26.6665" y="21.6667" width="1.66667" height="3.33333" fill="var(--icon-inside)" />
</svg>
