<svg viewBox="0 0 42 42" fill="none" xmlns="http://www.w3.org/2000/svg">
  <path
    d="M35 12.25H33.25V10.5H35V12.25ZM31.5 10.5H29.75V12.25H31.5V10.5ZM33.0312 28.875C33.0312 26.5832 31.1666 24.7188 28.875 24.7188C26.5834 24.7188 24.7188 26.5832 24.7188 28.875C24.7188 31.1668 26.5832 33.0312 28.875 33.0312C31.1668 33.0312 33.0312 31.1666 33.0312 28.875ZM31.2812 28.875C31.2812 30.2017 30.2017 31.2812 28.875 31.2812C27.5483 31.2812 26.4688 30.2017 26.4688 28.875C26.4688 27.5483 27.5481 26.4688 28.875 26.4688C30.2019 26.4688 31.2812 27.5481 31.2812 28.875ZM30.3936 38.3797L30.9597 38.2896L31.5007 36.2027C31.737 36.1179 31.9691 36.0217 32.1961 35.9144L34.0576 37.0042L34.5203 36.6686C35.3452 36.0705 36.0702 35.3454 36.6684 34.5205L37.0042 34.0576L35.9144 32.1961C36.0212 31.9704 36.117 31.7396 36.2014 31.5046L38.2898 30.9584L38.3795 30.3936C38.4593 29.8904 38.4998 29.3794 38.4998 28.875C38.4998 28.3706 38.4593 27.8593 38.3795 27.3562L38.2898 26.7901L36.2029 26.2493C36.118 26.0129 36.0216 25.7808 35.9142 25.5537L37.0042 23.6922L36.6686 23.2295C36.0704 22.4046 35.3454 21.6796 34.5205 21.0814L34.0578 20.7458L32.1956 21.8352C31.9701 21.7287 31.7397 21.633 31.505 21.5486L30.9582 19.4598L30.3938 19.3701C29.3873 19.2104 28.3627 19.2104 27.3562 19.3701L26.7901 19.4602L26.2493 21.5471C26.0131 21.6318 25.781 21.728 25.5537 21.8354L23.6922 20.7456L23.2295 21.0812C22.4046 21.6794 21.6796 22.4044 21.0814 23.2293L20.7456 23.6922L21.8354 25.5537C21.7287 25.7795 21.6329 26.0104 21.5484 26.2454L19.46 26.7916L19.3703 27.3562C19.2905 27.8593 19.25 28.3703 19.25 28.875C19.25 29.3797 19.2905 29.8904 19.3703 30.3936L19.46 30.9597L21.5469 31.5007C21.6318 31.7371 21.7282 31.9692 21.8356 32.1963L20.7456 34.0578L21.0814 34.5205C21.6796 35.3454 22.4046 36.0704 23.2295 36.6686L23.6919 37.0042L25.5542 35.9146C25.7797 36.0212 26.0102 36.1168 26.245 36.2012L26.7918 38.29L27.3562 38.3797C27.8593 38.4593 28.3703 38.5 28.875 38.5C29.3797 38.5 29.8904 38.4593 30.3936 38.3797ZM27.6903 34.8127L27.2112 34.6754C26.7727 34.5495 26.3501 34.374 25.9514 34.1523L25.5152 33.91L23.8133 34.9055C23.4629 34.6112 23.1386 34.2869 22.8443 33.9364L23.8405 32.2354L23.5979 31.799C23.3752 31.3987 23.1991 30.9742 23.0731 30.5338L22.9357 30.0525L21.0298 29.5586C20.9901 29.1032 20.9901 28.6453 21.0298 28.1899L22.9373 27.6909L23.0744 27.2114C23.2003 26.7727 23.3759 26.3498 23.5977 25.951L23.8403 25.5148L22.8443 23.8133C23.1386 23.4629 23.4629 23.1386 23.8133 22.8443L25.5146 23.8403L25.951 23.5977C26.3512 23.3751 26.7757 23.1991 27.216 23.0731L27.6973 22.9357L28.1912 21.0298C28.6467 20.9899 29.1048 20.9899 29.5603 21.03L30.0595 22.937L30.5386 23.0744C30.9771 23.2002 31.3997 23.3757 31.7984 23.5974L32.2346 23.8403L33.9364 22.8443C34.2869 23.1386 34.6112 23.4629 34.9055 23.8133L33.9095 25.5146L34.1521 25.951C34.3747 26.3512 34.5507 26.7757 34.6767 27.216L34.8141 27.6973L36.72 28.1912C36.7597 28.6466 36.7597 29.1047 36.72 29.5601L34.813 30.0589L34.6756 30.5382C34.5497 30.9769 34.374 31.3998 34.1521 31.7986L33.9093 32.235L34.9055 33.9364C34.6111 34.2869 34.2869 34.6111 33.9364 34.9055L32.235 33.9095L31.7988 34.1521C31.3986 34.3747 30.9741 34.5508 30.5338 34.6767L30.0525 34.8141L29.5586 36.72C29.1016 36.7598 28.6471 36.7598 28.1897 36.72L27.6903 34.8127ZM19.2609 35H3.5V7H38.5V22.7738L38.085 22.2018C37.6863 21.6534 37.2396 21.1416 36.75 20.6725V15.75H5.25V33.25H18.3643L19.2609 35ZM5.25 14H36.75V8.75H5.25V14ZM38.4825 35H38.5V34.9759L38.4825 35Z"
    fill="currentColor" />
</svg>